<svg xmlns="http://www.w3.org/2000/svg" version="1.1" xmlns:xlink="http://www.w3.org/1999/xlink" xmlns:svgjs="http://svgjs.dev/svgjs" width="100%" height="100%" viewBox="0 0 1000 600"><rect width="1000" height="600" x="0" y="0" fill="#8bd8bd"/><g><circle r="166.66666666666666" cx="304.63308207194007" cy="326.85531472853756" fill="#243665" transform="matrix(0.9060175624957096,0,0,0.9060175624957096,0,3.8633466884868852)"/><path d="M221.40159313755777 401.8553267165333L205.39689249806028 401.8553267165333L205.39689249806028 263.2771808710166L180.26175691224157 263.2771808710166L180.26175691224157 251.85532402696995L247.03026574750197 251.85532402696995L247.03026574750197 263.2771808710166L221.40159313755777 263.2771808710166L221.40159313755777 401.8553267165333ZM308.68714111860567 401.8553267165333L265.8199253088503 401.8553267165333L265.8199253088503 251.85532402696995L310.73179450426835 251.85532402696995Q320.39101911929544 251.85532402696995 327.3710427462129 254.64028294882084Q334.35106637313027 257.4252418706717 338.0173414094909 264.15849698552637Q341.68361644585156 270.89175210038104 341.68361644585156 282.5603774564904L341.68361644585156 282.5603774564904L341.68361644585156 369.1056199013501Q341.68361644585156 382.04334046235357 337.62956231910664 389.16437466759254Q333.57550819236167 396.2854088728315 326.10194754131874 399.0703677946824Q318.5931342456955 401.8553267165333 308.68714111860567 401.8553267165333L308.68714111860567 401.8553267165333ZM282.31816297247326 261.47929599741667L282.31816297247326 392.724891770212L306.6777403775234 392.724891770212Q315.31463829971915 392.724891770212 320.4967770530366 388.03629004102004Q325.7141684509345 383.31243566724766 325.7141684509345 369.8811780821187L325.7141684509345 369.8811780821187L325.7141684509345 284.6050308421531Q325.7141684509345 271.1385206124438 320.4967770530366 266.30890830493024Q315.31463829971915 261.47929599741667 306.6777403775234 261.47929599741667L306.6777403775234 261.47929599741667L282.31816297247326 261.47929599741667ZM429.0044170714798 401.8553267165333L371.4015958271211 401.8553267165333L371.4015958271211 251.85532402696995L387.1242753099754 251.85532402696995L387.1242753099754 390.4334698724866L429.0044170714798 390.4334698724866L429.0044170714798 401.8553267165333Z " fill="#8bd8bd" transform="matrix(0.9060175624957096,0,0,0.9060175624957096,0,3.8633466884868852)"/><path d="M593.1056146968851 400.20697125348437L578.1385817298523 400.20697125348437L578.1385817298523 270.61356466007777L554.6330872243577 270.61356466007777L554.6330872243577 259.9322459787591L617.0726476639181 259.9322459787591L617.0726476639181 270.61356466007777L593.1056146968851 270.61356466007777L593.1056146968851 400.20697125348437ZM674.7319883232589 400.20697125348437L634.6440762353468 400.20697125348437L634.6440762353468 259.9322459787591L676.6440762353467 259.9322459787591Q685.6770432683138 259.9322459787591 692.2045157957863 262.53664158315473Q698.7319883232589 265.1410371875503 702.1605597518303 271.4377404842536Q705.5891311804018 277.7344437809569 705.5891311804018 288.6465316930448L705.5891311804018 288.6465316930448L705.5891311804018 369.58059762711076Q705.5891311804018 381.67949872601184 701.7979223891929 388.3388393853525Q698.0067135979841 394.99818004469313 691.0177026089731 397.6025756490888Q683.9957245869952 400.20697125348437 674.7319883232589 400.20697125348437L674.7319883232589 400.20697125348437ZM650.0726476639181 268.93224597875906L650.0726476639181 391.6685097150228L672.8528674441379 391.6685097150228Q680.929790521061 391.6685097150228 685.775944367215 387.28389433040746Q690.6550652463358 382.86631191282504 690.6550652463358 370.30587235238545L690.6550652463358 370.30587235238545L690.6550652463358 290.5586196051327Q690.6550652463358 277.9652130117261 685.775944367215 273.4487294952426Q680.929790521061 268.93224597875906 672.8528674441379 268.93224597875906L672.8528674441379 268.93224597875906L650.0726476639181 268.93224597875906ZM787.2484718397424 400.20697125348437L733.3803399716105 400.20697125348437L733.3803399716105 259.9322459787591L748.0836366749072 259.9322459787591L748.0836366749072 389.5256525721657L787.2484718397424 389.5256525721657L787.2484718397424 400.20697125348437ZM815.9627575540281 400.20697125348437L801.4902300815006 400.20697125348437L801.4902300815006 282.71246575897885L815.9627575540281 282.71246575897885L815.9627575540281 400.20697125348437ZM808.841878433149 268.23993828645143L808.841878433149 268.23993828645143Q805.2814388727094 268.23993828645143 802.808911400182 265.7344437809569Q800.3034168946874 263.2619163084294 800.3034168946874 259.9322459787591L800.3034168946874 259.9322459787591Q800.3034168946874 256.3718064183195 802.808911400182 254.09708114359427Q805.2814388727094 251.85532290183602 808.841878433149 251.85532290183602L808.841878433149 251.85532290183602Q812.1715487628193 251.85532290183602 814.775944367215 254.09708114359427Q817.4133070045775 256.3718064183195 817.4133070045775 259.9322459787591L817.4133070045775 259.9322459787591Q817.4133070045775 263.2619163084294 814.775944367215 265.7344437809569Q812.1715487628193 268.23993828645143 808.841878433149 268.23993828645143ZM869.6330872243578 401.855322901836L869.6330872243578 401.855322901836Q856.808911400182 401.855322901836 849.6880322793028 398.65752070403386Q842.5671531584236 395.4597185062316 839.6990212902919 388.47070751722066Q836.8638564551269 381.4487294952426 836.8638564551269 369.81136685788L836.8638564551269 369.81136685788L836.8638564551269 359.6245536710668L851.8308894221599 359.6245536710668L851.8308894221599 373.1410371875503Q851.8308894221599 384.31686136337447 855.6220982133688 388.56960861612174Q859.4133070045775 392.855322901836 869.3693509606215 392.855322901836L869.3693509606215 392.855322901836Q878.1715487628193 392.855322901836 882.3253949166655 388.56960861612174Q886.4792410705116 384.31686136337447 886.4792410705116 374.09708114359427L886.4792410705116 374.09708114359427L886.4792410705116 367.4377404842536Q886.4792410705116 361.99818004469313 884.7979223891929 358.0751031216162Q883.1495707408412 354.1520261985393 878.5341861254566 350.822355868869Q873.885834477105 347.5256525721657 865.5781421694127 344.19598224249535L865.5781421694127 344.19598224249535Q857.7649553562259 341.09708114359427 851.8308894221599 337.5366415831547Q845.896823488094 333.97620202271514 842.4352850265556 328.5366415831547Q839.0067135979841 323.06411411062726 839.0067135979841 314.5256525721657L839.0067135979841 314.5256525721657L839.0067135979841 307.4047734512866Q839.0067135979841 294.81136685788 846.2264938177643 287.82235586886895Q853.4792410705116 280.80037784689097 870.8199004111709 280.80037784689097L870.8199004111709 280.80037784689097Q882.1935267847974 280.80037784689097 888.9517685430391 283.89927894579205Q895.7429773342479 286.99818004469313 898.94077953205 293.855322901836Q902.1385817298523 300.7454327919459 902.1385817298523 311.6575207040338L902.1385817298523 311.6575207040338L902.1385817298523 321.64653169304484L887.6660542573248 321.64653169304484L887.6660542573248 310.2399382864514Q887.6660542573248 298.3718064183195 883.6111092023797 293.98719103370416Q879.5891311804018 289.6025756490888 870.8199004111709 289.6025756490888L870.8199004111709 289.6025756490888Q860.8308894221599 289.6025756490888 857.4023179935886 294.34982839634154Q853.94077953205 299.09708114359427 853.94077953205 306.2179602644734L853.94077953205 306.2179602644734L853.94077953205 312.61356466007777Q853.94077953205 319.27290531941844 856.907812499083 323.5256525721657Q859.874845466116 327.81136685788 865.3473729386434 330.6465316930448Q870.8199004111709 333.5146635611767 878.4023179935886 336.58059762711076L878.4023179935886 336.58059762711076Q885.2924278836985 339.4487294952426 890.6330872243577 342.6465316930448Q895.9737465650171 345.844333890847 899.0396806309512 351.31686136337447Q902.1385817298523 356.75642180293494 902.1385817298523 366.2509272974404L902.1385817298523 366.2509272974404L902.1385817298523 371.7234547699679Q902.1385817298523 381.2179602644734 899.1715487628193 387.97620202271514Q896.2045157957863 394.73444378095695 889.0836366749072 398.2948833413964Q881.962757554028 401.855322901836 869.6330872243578 401.855322901836ZM948.885834477105 400.4377404842536L948.885834477105 400.4377404842536Q943.6770432683138 400.4377404842536 939.3913289825995 399.25092729744046Q935.1385817298523 398.06411411062726 932.0396806309511 395.32785037436355Q928.9737465650171 392.6245536710668 927.2924278836985 388.20697125348437Q925.6440762353467 383.822355868869 925.6440762353467 377.19598224249535L925.6440762353467 377.19598224249535L925.6440762353467 291.97620202271514L915.1935267847973 291.97620202271514L915.1935267847973 284.3608174073305L926.6001201913908 282.71246575897885L929.2045157957863 260.6245536710668L940.3473729386434 260.6245536710668L940.3473729386434 282.71246575897885L965.7649553562259 282.71246575897885L965.7649553562259 291.97620202271514L940.3473729386434 291.97620202271514L940.3473729386434 374.5586196051327Q940.3473729386434 381.2179602644734 942.7209993122698 385.7344437809569Q945.0946256858962 390.2509272974404 953.1715487628193 390.2509272974404L953.1715487628193 390.2509272974404Q956.5012190924896 390.2509272974404 960.2924278836985 389.888289934803Q964.0836366749072 389.5256525721657 965.7649553562259 389.5256525721657L965.7649553562259 389.5256525721657L965.7649553562259 399.0201580666712Q963.852867444138 399.0201580666712 959.1056146968853 399.7454327919459Q954.3583619496325 400.4377404842536 948.885834477105 400.4377404842536Z " fill="#243665" transform="matrix(0.9060175624957096,0,0,0.9060175624957096,0,3.8633466884868852)"/></g></svg>